<svg xmlns="http://www.w3.org/2000/svg" viewBox="0 0 36 36"><defs><style>.cap-opinion-1,.cap-opinion2{fill:none;stroke:#000;stroke-miterlimit:10;}.cap-opinion-1{stroke-width:2px;}.cap-opinion2{stroke-width:3px;}</style></defs><g id="icon"><circle class="cap-opinion-1" cx="10.5" cy="17.5" r="3.5"/><path class="cap-opinion-1" d="M4.5,32c0-3.3.5-8,6-8s6,4.7,6,8"/><path class="cap-opinion-1" d="M10.5,11V6.5a2,2,0,0,1,2-2h17a2,2,0,0,1,2,2V20a2,2,0,0,1-2,2H21.2L18,25.6"/><path class="cap-opinion-1" d="M17.8,11.4v-1a2,2,0,0,1,2-1.9h2.4a2,2,0,0,1,2,1.9v1.4a1.9,1.9,0,0,1-2,1.9h-1v2.1"/><line class="cap-opinion2" x1="21.2" y1="16.8" x2="21.2" y2="18.9"/><line class="cap-opinion-1" x1="21.2" y1="22" x2="16.5" y2="22"/></g></svg>