<svg xmlns="http://www.w3.org/2000/svg" viewBox="0 0 36 36"><defs><style>.cap-main-1,.cap-main2{fill:none;stroke:#000;stroke-width:2px;}.cap-main-1{stroke-miterlimit:10;}.cap-main2{stroke-linejoin:round;}</style></defs><g id="Layer_1" data-name="Layer 1"><path class="cap-main-1" d="M25.8,32.5V30.4a2.4,2.4,0,0,1,.9-2.2l2.6-2.6c2.5-2.5,2.5-6.5,2.4-8.6-.2-4-3.1-3.3-3.1-1.4v2.8c0,1.5-.4,1.9-2,3.5"/><path class="cap-main-1" d="M19.4,32.5V27.6c0-2.5.6-3.2,1.3-4a25.9,25.9,0,0,1,3.2-3c2.5-2.6,4.1-.1,2.7,1.3l-2.2,2.2a4.9,4.9,0,0,0-.8,1.2"/><path class="cap-main-1" d="M10.2,32.5V30.4a2.4,2.4,0,0,0-.9-2.2L6.7,25.6C4.2,23.1,4.2,19.1,4.3,17c.2-4,3.1-3.3,3.1-1.4v2.8c0,1.5.4,1.9,2,3.5"/><path class="cap-main-1" d="M16.6,32.5V27.6c0-2.5-.6-3.2-1.3-4a25.9,25.9,0,0,0-3.2-3C9.6,18,8,20.5,9.4,21.9l2.2,2.2a4.9,4.9,0,0,1,.8,1.2"/><polyline class="cap-main2" points="6.7 12 8.7 11.4 15 5"/><polyline class="cap-main2" points="22.1 6 20.7 7.4 20.7 10.3 18.2 12.9 18.2 15 20.7 15 22.4 13.3 24.4 13.3 26.5 15.3"/><polyline class="cap-main2" points="16 19.6 18.8 16.7 24.2 16.7"/></g><g id="icon"><path class="cap-main2" d="M6.7,12a12.5,12.5,0,0,1,22.8.1"/></g></svg>