<svg id="Layer_1" data-name="Layer 1" xmlns="http://www.w3.org/2000/svg" viewBox="0 0 36 36"><defs><style>.wh-o-1{fill:none;stroke:#000;stroke-linejoin:round;stroke-width:2px;}</style></defs><path class="wh-o-1" d="M32,16.5c-3.5,0-3.5-3-3.5-3s-.6,3-3.5,3-3.5-3-3.5-3a3.5,3.5,0,0,1-7,0s-1,3-3.5,3a3.6,3.6,0,0,1-3.5-3s0,3-3.5,3"/><path class="wh-o-1" d="M32,23.9c-3.5,0-3.5-3-3.5-3s-.6,3-3.5,3-3.5-3-3.5-3a3.5,3.5,0,0,1-7,0s-1,3-3.5,3a3.6,3.6,0,0,1-3.5-3s0,3-3.5,3"/><path class="wh-o-1" d="M32,31.3c-3.5,0-3.5-3-3.5-3s-.6,3-3.5,3-3.5-3-3.5-3a3.5,3.5,0,0,1-7,0s-1,3-3.5,3a3.6,3.6,0,0,1-3.5-3s0,3-3.5,3"/></svg>