<svg xmlns="http://www.w3.org/2000/svg" viewBox="0 0 36 36"><defs><style>.sotc-m-1{fill:none;stroke:#000;stroke-linecap:round;stroke-linejoin:round;stroke-width:2px;}</style></defs><g id="icon"><path class="sotc-m-1" d="M26.9,23.6h0a3.7,3.7,0,0,0-3.7-3.8,3.9,3.9,0,0,0-2,.6A5.7,5.7,0,0,0,10,21.6a7.1,7.1,0,0,0,.4,2,3.7,3.7,0,0,0-3.2,3.6A3.8,3.8,0,0,0,11,31H26a3.8,3.8,0,0,0,3.8-3.8A3.8,3.8,0,0,0,26.9,23.6Z"/><circle class="sotc-m-1" cx="19.5" cy="9.5" r="0.5"/><circle class="sotc-m-1" cx="29" cy="16" r="2"/><circle class="sotc-m-1" cx="7" cy="13" r="2"/><circle class="sotc-m-1" cx="12" cy="6" r="0.5"/><circle class="sotc-m-1" cx="25.5" cy="4.5" r="0.5"/></g></svg>