<svg xmlns="http://www.w3.org/2000/svg" viewBox="0 0 36 36"><defs><style>.whm-1,.whm-2{fill:none;stroke:#000;stroke-linejoin:round;stroke-width:2px;}.whm-2{stroke-dasharray:6.11 6.11;}</style></defs><g id="Layer_1" data-name="Layer 1"><polyline class="whm-1" points="11.4 32 11.4 28 6 22.6"/><polyline class="whm-1" points="7 19.9 8.7 19.9 15 13.6"/><polyline class="whm-1" points="22.1 14.6 20.7 15.9 20.7 18.9 18.2 21.4 18.2 23.5 20.7 23.5 22.4 21.8 24.4 21.8 26.5 23.9 26.5 26.6 28.8 26.6 30.3 28.2"/><polyline class="whm-1" points="16 32 16 28.2 18.8 25.3 24.2 25.3 26 27.1 27.9 27.1 30.1 29.3"/></g><g id="icon"><path class="whm-1" d="M6.6,30.7a11.8,11.8,0,0,1-1.1-5,12.6,12.6,0,0,1,25.1,0,13,13,0,0,1-1,4.9"/><path class="whm-1" d="M4.5,11A20.7,20.7,0,0,1,9.2,7.3"/><path class="whm-2" d="M14.9,5.3A16.3,16.3,0,0,1,18,5a19.9,19.9,0,0,1,6,1"/><path class="whm-1" d="M26.8,7.3a20.3,20.3,0,0,1,4.7,3.6"/></g></svg>