<svg xmlns="http://www.w3.org/2000/svg" viewBox="0 0 36 36"><defs><style>.wh-s-1{fill:none;stroke:#000;stroke-miterlimit:10;stroke-width:2px;}</style></defs><g id="icon"><line class="wh-s-1" x1="12" y1="31.7" x2="31.9" y2="31.7"/><line class="wh-s-1" x1="3.9" y1="31.5" x2="9" y2="31.5"/><path class="wh-s-1" d="M9,15.6h3.9a0,0,0,0,1,0,0v3.2a4.5,4.5,0,0,1-4.5,4.5H5.1a0,0,0,0,1,0,0V19.5A3.9,3.9,0,0,1,9,15.6Z"/><path class="wh-s-1" d="M12.9,15.6s2.1-3.6,4.3-7a2.3,2.3,0,0,1,4.3,1V31.5"/><path class="wh-s-1" d="M24.5,20.5h2a4.4,4.4,0,0,1,4.4,4.4v2a0,0,0,0,1,0,0H28a3.5,3.5,0,0,1-3.5-3.5V20.5A0,0,0,0,1,24.5,20.5Z"/><path class="wh-s-1" d="M24.5,20.5V16.6c0-4.1-3-3-3-3"/></g></svg>