<svg xmlns="http://www.w3.org/2000/svg" viewBox="0 0 36 36"><defs><style>.cap-ndc-1,.cap-ndc-2{fill:none;stroke:#000;stroke-miterlimit:10;stroke-width:2px;}.cap-ndc-2{stroke-dasharray:1.94 1.94;}</style></defs><g id="Layer_1" data-name="Layer 1"><polyline class="cap-ndc-1" points="31.3 7 18 21 11.3 14.3"/></g><g id="icon"><path class="cap-ndc-1" d="M28.9,14.2a12.1,12.1,0,0,1,.6,3.8A11.5,11.5,0,0,1,18,29.5a11.9,11.9,0,0,1-8.1-3.3"/><path class="cap-ndc-1" d="M18,6.5A11.4,11.4,0,0,1,25.2,9"/><path class="cap-ndc-1" d="M9.9,26.2a4.6,4.6,0,0,0-.7-.7"/><path class="cap-ndc-2" d="M8.1,23.9A11.8,11.8,0,0,1,6.5,18,11.6,11.6,0,0,1,16,6.6"/><path class="cap-ndc-1" d="M17,6.5h1"/></g></svg>