<svg xmlns="http://www.w3.org/2000/svg" viewBox="0 0 99.1 72"><defs><style>.svg-unep1{fill:#ccc;}</style></defs><g id="icon"><path class="svg-unep1" d="M78.2,25a9.6,9.6,0,0,1-6.7-9.2,8.2,8.2,0,0,1,.2-2.2l6.2.8s2.4.1,2.3,4.3A10.5,10.5,0,0,1,78.2,25Z"/><path class="svg-unep1" d="M83.8,25a9.6,9.6,0,0,0,6.7-9.2,16.4,16.4,0,0,0-.2-2.2l-6.2.8s-2.4.1-2.3,4.3A10.5,10.5,0,0,0,83.8,25Z"/><path class="svg-unep1" d="M81,9a1.5,1.5,0,0,1,1.4,1.5,1.4,1.4,0,0,1-.9,1.3V12l.4.2,8.3.9A9.5,9.5,0,0,0,81,6.3h0a9.7,9.7,0,0,0-9.2,6.8l8.4-.9.4-.2v-.2a1.5,1.5,0,0,1-1-1.3A1.5,1.5,0,0,1,81,9Z"/><path class="svg-unep1" d="M84.8,31.7l.5-.3s-2.6-3.7-8.6-3.7c-3.1,0-4.6,1.3-6.8,1.3a2.6,2.6,0,0,1-1.7-.5s1,1.5,4.7,1.5,4.6-1.6,6.5-1.6S84,30.8,84.8,31.7Z"/><path class="svg-unep1" d="M76.5,31.7l-.6-.3s2.7-3.7,8.7-3.7c3,0,4.6,1.3,6.8,1.3a2.7,2.7,0,0,0,1.7-.5s-1,1.5-4.7,1.5-4.7-1.6-6.6-1.6S77.3,30.8,76.5,31.7Z"/><path class="svg-unep1" d="M73.6,27.4c-.1.3-1.2,0-2,.2a6.3,6.3,0,0,1-7.4-3.9s1.9,2,3.4,2.1A12.3,12.3,0,0,1,72,27.1h.3s0-.2-.1-.2a4.1,4.1,0,0,1-2.3-2.8,11.6,11.6,0,0,1-.4-2.7,25.1,25.1,0,0,1,2.1,2.9C72.3,25.5,72.3,26.7,73.6,27.4Z"/><path class="svg-unep1" d="M69,25c-.1.1-.4,0-.5-.1L66.3,24a5.6,5.6,0,0,1-3.4-5.9,4.7,4.7,0,0,0,1.3,2.2,11.2,11.2,0,0,1,1.9,1.6l2,2.3c.1,0,.1-.1,0-.2l-.7-1.2a6.4,6.4,0,0,1,.1-4.9,8.7,8.7,0,0,1,1,3.7c-.1,1.9-.2,1.4.3,3Z"/><path class="svg-unep1" d="M66,20.5c-.1.1-.3-.3-.6-.7s-1.6-1.9-1.8-2.3a5.1,5.1,0,0,1-.6-5.3s.1,0,.1.7a5.6,5.6,0,0,0,1.2,2.9,6.3,6.3,0,0,1,1.1,2.9.5.5,0,0,0,.1.3c.1,0,.1-.2.1-.2s-.1-1.1-.1-1.8a5,5,0,0,1,1-2.7,2.1,2.1,0,0,0,.6-.8l.3-.4a11.1,11.1,0,0,1-.6,3.9c-.7,1.9-.9,2.2-.8,3.2Z"/><path class="svg-unep1" d="M64.8,14.9a1,1,0,0,1-.1-.4c-.1-.2-.3-1.3-.4-1.6a4.7,4.7,0,0,1-.7-2.6,7.1,7.1,0,0,1,1.9-4.6,4.5,4.5,0,0,1-.4,1.4A4.3,4.3,0,0,0,65,9c0,.2.2,1.3.2,1.8a13.6,13.6,0,0,1-.2,2.1s-.1.2,0,.2.1-.2.1-.2a4.3,4.3,0,0,1,.9-2.1c.8-1,2.3-1.6,2.5-2a6,6,0,0,1-1.8,3.4c-1.5,1.6-1.1.8-1.6,2.1l-.2.6Z"/><path class="svg-unep1" d="M65.8,9.7s-.1-.2.2-.6,0-1.4.3-2.6a7,7,0,0,1,3.5-4.6l-.4.4a13.8,13.8,0,0,0-1,2.3,6.8,6.8,0,0,1-1.3,2.7c-.3.4-.2.4-.2.4s.2,0,.3-.3A5.4,5.4,0,0,1,69.1,6l2.4-.7a14.1,14.1,0,0,1-3,2.4c-1.4.8-1.5.6-2.4,1.7Z"/><path class="svg-unep1" d="M69.2,5.1a.6.6,0,0,1,.2-.4,10.9,10.9,0,0,0,1-1.7A5.8,5.8,0,0,1,74.6.1a5.7,5.7,0,0,0-.9.8L72.4,2.5a13.6,13.6,0,0,1-1.7,1.2s-.2.1-.1.2.2-.1.2-.1a3.7,3.7,0,0,1,2-.7h2.5a10.2,10.2,0,0,1-3.6,1.2c-2.5.5-2,.5-2.4.7Z"/><path class="svg-unep1" d="M73.7,2.1s0-.1.4-.2.4-.5,1.6-1.2A4.6,4.6,0,0,1,79.5.3h-.6L77.6.8a9.1,9.1,0,0,1-2.2.9c-.5.1-.2.1-.2.1h.2a5.2,5.2,0,0,1,2.1.1l1.1.5.7.3H78.1a7.1,7.1,0,0,1-2.4-.4,3.7,3.7,0,0,0-1.5-.4C74,2.2,73.7,2.2,73.7,2.1Z"/><path class="svg-unep1" d="M78.6,1.5h.5A5.2,5.2,0,0,1,80.3.9a4.1,4.1,0,0,1,3.3.5h-.9l-1.8.2c-.3,0-1-.1-1.1,0l.7.3a1.7,1.7,0,0,1,1.2.6l1.1,1-2.2-.7a8.1,8.1,0,0,1-1.3-1.1Z"/><path class="svg-unep1" d="M82.7,2.2a4.1,4.1,0,0,1,1.9.5,4,4,0,0,1,1.6,1.6l-.8-.5-1.3-.6Z"/><path class="svg-unep1" d="M87.9,27.6l.7-.6a7.2,7.2,0,0,0,1.2-2.2A10.9,10.9,0,0,1,92.1,22a7.5,7.5,0,0,0-.2,1.1,4.7,4.7,0,0,1-.9,2.4,4.9,4.9,0,0,1-1.5,1.4l-.3.3c.1.1.6,0,.6,0l.7-.4,1.3-.6,1.3-.4c.7-.3,3.2-.9,4.2-2.5a9,9,0,0,1-.6,1.4c-.4.4-2.5,3.2-5.4,3.1l-1.7-.2h-.9A1.1,1.1,0,0,1,87.9,27.6Z"/><path class="svg-unep1" d="M94.4,17.7a10.6,10.6,0,0,0-1.3,4.2c-.3,2.5.1,1.7-.3,2.8s-.1.3,0,.3l1-.6A7.6,7.6,0,0,0,97,22.5c1.6-1.6,2-4.7,2-5a1.7,1.7,0,0,0-.4.7,2.7,2.7,0,0,1-.4.8l-2.1,2.2L94.6,23c-.2.4-.9,1.1-1,1a.8.8,0,0,1,.1-.3,7.1,7.1,0,0,0,.7-1.5,7.4,7.4,0,0,0,.3-1.8C94.7,19.9,94.4,18.1,94.4,17.7Z"/><path class="svg-unep1" d="M95.9,20.1a.5.5,0,0,1,0-.4,4,4,0,0,0-.2-1.7,9.1,9.1,0,0,1-1-3.8,4.2,4.2,0,0,1,.2-1.4,5.1,5.1,0,0,0,.5,1.2,6.9,6.9,0,0,1,1,3c-.1,1-.1,1.4-.1,1.4s.2-.1.2-.3a6.7,6.7,0,0,1,.6-1.6A35.7,35.7,0,0,0,99,12.6a6,6,0,0,1-.7,4.1c-1.2,2-1.3,1.5-1.8,2.4S96,20.1,95.9,20.1Z"/><path class="svg-unep1" d="M97,14.5c-.1,0-.1-.8-.3-1a13,13,0,0,1-2.4-4.6l1.3,1.3a3.7,3.7,0,0,1,1.2,1.6c.3.6.2,1.2.3,1.2s.1-.7.1-.7,0-1.5.1-2.2a7.4,7.4,0,0,0,.3-2.5,5.3,5.3,0,0,1,.7,2.6,8,8,0,0,1-.8,3,4.5,4.5,0,0,0-.3,1.1Z"/><path class="svg-unep1" d="M94.8,3.5s2.4,1.4,2,6.2c0,0,0,.2-.1-.1l-.9-1a8.5,8.5,0,0,1-3.2-3.4l.3.2,1,.6a2.9,2.9,0,0,1,1.4.8,6.3,6.3,0,0,1,.9,1.4s.1.1,0-.2a3,3,0,0,0-.4-1.1,4.9,4.9,0,0,1-.6-1.7A2.9,2.9,0,0,0,94.8,3.5Z"/><path class="svg-unep1" d="M94.4,5.2a1,1,0,0,0-.2-.8,6.7,6.7,0,0,0-.7-2.1,5.7,5.7,0,0,0-1.9-1.1l.7.9a2.3,2.3,0,0,1,.5.7c0,.1.5.6.7.9v.2c0,.1-.2,0-.2-.1A6.3,6.3,0,0,0,91.9,3L90,2.7a7.5,7.5,0,0,0,2.6,1.4A3.5,3.5,0,0,1,94.4,5.2Z"/><path class="svg-unep1" d="M91.6,2.3A4.1,4.1,0,0,0,88.2.7h.4l.9.7A6,6,0,0,0,91.6,2.3Z"/><path class="svg-unep1" d="M24.1,0V20.7a11.3,11.3,0,0,1-.9,4.7,9,9,0,0,1-2.5,3.5A10.7,10.7,0,0,1,16.9,31a14.3,14.3,0,0,1-4.8.7A15.1,15.1,0,0,1,7.3,31a10.1,10.1,0,0,1-3.8-2.1A10.1,10.1,0,0,1,1,25.4a11.3,11.3,0,0,1-.9-4.7V0H6.6V20.7a5.7,5.7,0,0,0,1.5,4.4,5.2,5.2,0,0,0,4,1.5,5.4,5.4,0,0,0,4.1-1.5,5.7,5.7,0,0,0,1.5-4.4V0Z"/><polygon class="svg-unep1" points="54.9 31.3 48.4 31.3 35.9 10.7 35.9 31.3 29.4 31.3 29.4 0 35.9 0 48.4 20.6 48.4 0 54.9 0 54.9 31.3"/><path class="svg-unep1" d="M4.8,51.5a4.2,4.2,0,0,1-3.3-1.3A4.2,4.2,0,0,1,.2,46.9v-.3a6.6,6.6,0,0,1,.5-2.5,3.8,3.8,0,0,1,1.6-1.7,4,4,0,0,1,2.2-.6,3.8,3.8,0,0,1,3,1.2,5,5,0,0,1,1.1,3.4v1.1H2.7a2.1,2.1,0,0,0,.7,1.4,2.1,2.1,0,0,0,1.6.6,2.8,2.8,0,0,0,2.2-1.1l1.2,1.4a3.7,3.7,0,0,1-1.5,1.3A4.6,4.6,0,0,1,4.8,51.5Zm-.3-7.7a1.7,1.7,0,0,0-1.2.5,2.6,2.6,0,0,0-.6,1.4H6.2v-.2a1.9,1.9,0,0,0-.5-1.3A1.6,1.6,0,0,0,4.5,43.8Z"/><path class="svg-unep1" d="M12.4,41.9V43a3.4,3.4,0,0,1,2.7-1.2,2.6,2.6,0,0,1,2.2.8,4.1,4.1,0,0,1,.7,2.7v6H15.5v-6a1.6,1.6,0,0,0-.3-1.1,1.2,1.2,0,0,0-1.1-.4,1.8,1.8,0,0,0-1.6.9v6.6H10V41.9Z"/><polygon class="svg-unep1" points="23.4 48.3 25.2 41.9 27.7 41.9 24.6 51.3 22.3 51.3 19.1 41.9 21.7 41.9 23.4 48.3"/><path class="svg-unep1" d="M28.9,39.5a1,1,0,0,1,.4-.9,1.2,1.2,0,0,1,1-.4,1.3,1.3,0,0,1,1,.4,1.2,1.2,0,0,1,0,1.8,1.3,1.3,0,0,1-1,.4,1.2,1.2,0,0,1-1-.4A1,1,0,0,1,28.9,39.5Zm2.6,11.8H29.1V41.9h2.4Z"/><path class="svg-unep1" d="M38.9,44.3H38c-1,0-1.6.3-1.9,1v6.1H33.7V41.9H36v1.2a2.1,2.1,0,0,1,2-1.3h.8Z"/><path class="svg-unep1" d="M39.5,46.6a4.9,4.9,0,0,1,.5-2.5,3.1,3.1,0,0,1,1.5-1.7,4.4,4.4,0,0,1,2.3-.6,4.1,4.1,0,0,1,3.1,1.1,4.9,4.9,0,0,1,1.3,3.2v.6A5,5,0,0,1,47,50.2a3.9,3.9,0,0,1-3.2,1.3,4.1,4.1,0,0,1-3.2-1.3,5.2,5.2,0,0,1-1.1-3.5Zm2.4.1a4.1,4.1,0,0,0,.5,2.1,1.8,1.8,0,0,0,2.8,0,3.6,3.6,0,0,0,.5-2.3,3.1,3.1,0,0,0-.5-2,1.8,1.8,0,0,0-2.8,0A4.2,4.2,0,0,0,41.9,46.7Z"/><path class="svg-unep1" d="M52.1,41.9V43a3.1,3.1,0,0,1,2.6-1.2,2.6,2.6,0,0,1,2.2.8,4.1,4.1,0,0,1,.7,2.7v6H55.3v-6a1.4,1.4,0,0,0-1.5-1.5,1.8,1.8,0,0,0-1.6.9v6.6H49.8V41.9Z"/><path class="svg-unep1" d="M62,41.9V43a3.4,3.4,0,0,1,2.7-1.2,2.3,2.3,0,0,1,2.4,1.4A3.1,3.1,0,0,1,70,41.8a2.9,2.9,0,0,1,2.2.8,4.1,4.1,0,0,1,.8,2.7v6H70.5v-6a1.6,1.6,0,0,0-.3-1.1,1.2,1.2,0,0,0-1.1-.4,1.5,1.5,0,0,0-1.5,1.1v6.4H65.1v-6a1.6,1.6,0,0,0-.3-1.1,1.2,1.2,0,0,0-1.1-.4,1.6,1.6,0,0,0-1.5.9v6.6H59.7V41.9Z"/><path class="svg-unep1" d="M79.2,51.5a4.3,4.3,0,0,1-3.3-1.3,4.2,4.2,0,0,1-1.3-3.3v-.3a5.1,5.1,0,0,1,.6-2.5,3.1,3.1,0,0,1,1.5-1.7,4,4,0,0,1,2.2-.6,3.8,3.8,0,0,1,3,1.2A5,5,0,0,1,83,46.4v1.1H77.1a2.2,2.2,0,0,0,2.3,2,2.7,2.7,0,0,0,2.2-1.1l1.2,1.4a3.7,3.7,0,0,1-1.5,1.3A4.6,4.6,0,0,1,79.2,51.5Zm-.3-7.7a1.7,1.7,0,0,0-1.2.5,2.6,2.6,0,0,0-.6,1.4h3.5v-.2a1.9,1.9,0,0,0-.5-1.3A1.6,1.6,0,0,0,78.9,43.8Z"/><path class="svg-unep1" d="M86.8,41.9V43a3.1,3.1,0,0,1,2.6-1.2,2.6,2.6,0,0,1,2.2.8,4.1,4.1,0,0,1,.7,2.7v6H90v-6a1.6,1.6,0,0,0-.4-1.1,1.2,1.2,0,0,0-1.1-.4,1.8,1.8,0,0,0-1.6.9v6.6H84.5V41.9Z"/><path class="svg-unep1" d="M97.4,39.6v2.3h1.5v1.9H97.4v4.7c0,.3,0,.6.1.7a1,1,0,0,0,.8.3H99v1.9l-1.5.2a2.3,2.3,0,0,1-2.6-2.6V43.8H93.5V41.9h1.4V39.6Z"/><path class="svg-unep1" d="M8.9,63.7a6.3,6.3,0,0,1-1,3.5,3.3,3.3,0,0,1-2.6,1.3,3.1,3.1,0,0,1-2.3-1v4.4H.5v-13H2.8v.9a3,3,0,0,1,2.4-1.1A2.9,2.9,0,0,1,7.9,60a5.8,5.8,0,0,1,1,3.5v.2Zm-2.5-.2a3.4,3.4,0,0,0-.5-2,1.4,1.4,0,0,0-1.3-.8,1.6,1.6,0,0,0-1.6.9v3.9a1.6,1.6,0,0,0,1.6.9C5.8,66.4,6.4,65.4,6.4,63.5Z"/><path class="svg-unep1" d="M15.7,61.2h-.9c-.9,0-1.6.3-1.8.9v6.2H10.5V58.9h2.3V60A2.3,2.3,0,0,1,15,58.7h.7Z"/><path class="svg-unep1" d="M16.3,63.5a6.6,6.6,0,0,1,.5-2.5,5,5,0,0,1,1.5-1.7,4.6,4.6,0,0,1,2.3-.6,4.1,4.1,0,0,1,3.1,1.2A4.4,4.4,0,0,1,25,63v.7a5.1,5.1,0,0,1-1.2,3.5,4.2,4.2,0,0,1-3.1,1.3,4.3,4.3,0,0,1-3.2-1.3,5.2,5.2,0,0,1-1.2-3.6Zm2.4.2a3.4,3.4,0,0,0,.5,2,1.7,1.7,0,0,0,1.5.7,1.6,1.6,0,0,0,1.4-.7,4,4,0,0,0,.5-2.2,4.1,4.1,0,0,0-.5-2.1,2.1,2.1,0,0,0-1.5-.7,1.9,1.9,0,0,0-1.4.7A4.6,4.6,0,0,0,18.7,63.7Z"/><path class="svg-unep1" d="M26.3,63.5a5.6,5.6,0,0,1,1-3.5A3.2,3.2,0,0,1,30,58.7a2.8,2.8,0,0,1,2.4,1.1v-.9h2.2V68a4.6,4.6,0,0,1-.5,2.1,3.6,3.6,0,0,1-1.6,1.4,5.2,5.2,0,0,1-2.3.5,4.8,4.8,0,0,1-2-.4,3.1,3.1,0,0,1-1.4-1.1l1-1.5a3,3,0,0,0,2.3,1,1.8,1.8,0,0,0,2-2v-.5a2.9,2.9,0,0,1-2.2,1,3.3,3.3,0,0,1-2.7-1.4,5.4,5.4,0,0,1-1-3.5Zm2.5.2a3,3,0,0,0,.5,2,1.5,1.5,0,0,0,1.3.7,2,2,0,0,0,1.7-.8v-4a1.8,1.8,0,0,0-1.6-.9,1.6,1.6,0,0,0-1.4.8A3.4,3.4,0,0,0,28.8,63.7Z"/><path class="svg-unep1" d="M41.9,61.2H41a1.8,1.8,0,0,0-1.8.9v6.2H36.7V58.9h2.4V60a2.3,2.3,0,0,1,2.1-1.3H42Z"/><path class="svg-unep1" d="M48.3,68.3a2,2,0,0,1-.2-.9,3,3,0,0,1-2.4,1.1,3.3,3.3,0,0,1-2.2-.8,2.7,2.7,0,0,1-.9-2.1,2.6,2.6,0,0,1,1.1-2.3,5.2,5.2,0,0,1,3.1-.8H48V62a1.5,1.5,0,0,0-.4-1,1.1,1.1,0,0,0-1-.4,1.5,1.5,0,0,0-1,.3,1,1,0,0,0-.3.8H42.8a2.7,2.7,0,0,1,.5-1.5,3.1,3.1,0,0,1,1.4-1.1,4.5,4.5,0,0,1,2-.4,3.8,3.8,0,0,1,2.7.9,3,3,0,0,1,1,2.4v4.1a4.6,4.6,0,0,0,.4,2v.2Zm-2-1.8a1.8,1.8,0,0,0,1-.2,2.3,2.3,0,0,0,.7-.7V64H47c-1.2,0-1.9.4-1.9,1.3v.2a.9.9,0,0,0,.3.7A1.2,1.2,0,0,0,46.3,66.5Z"/><path class="svg-unep1" d="M54.7,58.9v1a3.4,3.4,0,0,1,2.7-1.2,2.4,2.4,0,0,1,2.4,1.4,3.4,3.4,0,0,1,2.8-1.4,2.7,2.7,0,0,1,2.2.9,4.1,4.1,0,0,1,.8,2.7v6H63.2v-6a1.9,1.9,0,0,0-.3-1.2,1.6,1.6,0,0,0-1.1-.4,1.5,1.5,0,0,0-1.5,1.1v6.5H57.8v-6a1.7,1.7,0,0,0-.3-1.2,1.6,1.6,0,0,0-1.1-.4,1.6,1.6,0,0,0-1.5.9v6.7H52.4V58.9Z"/><path class="svg-unep1" d="M70,58.9v1a3.1,3.1,0,0,1,2.6-1.2,2.6,2.6,0,0,1,2.5,1.4,3.1,3.1,0,0,1,2.7-1.4,2.9,2.9,0,0,1,2.3.9,4.1,4.1,0,0,1,.7,2.7v6H78.4v-6a1.9,1.9,0,0,0-.3-1.2,1.6,1.6,0,0,0-2.6.7v6.5H73v-6a1.7,1.7,0,0,0-.3-1.2,1.3,1.3,0,0,0-1-.4,1.7,1.7,0,0,0-1.6.9v6.7H67.7V58.9Z"/><path class="svg-unep1" d="M87.1,68.5a4.3,4.3,0,0,1-4.5-4.7v-.2a5.5,5.5,0,0,1,.5-2.6,5,5,0,0,1,1.5-1.7,4.4,4.4,0,0,1,2.3-.6,4.1,4.1,0,0,1,3,1.2,5.2,5.2,0,0,1,1,3.5v1H85.1a2.1,2.1,0,0,0,.7,1.5,2.7,2.7,0,0,0,3.7-.5l1.2,1.4A3.1,3.1,0,0,1,89.2,68,4.6,4.6,0,0,1,87.1,68.5Zm-.2-7.8a1.7,1.7,0,0,0-1.2.5,3.4,3.4,0,0,0-.6,1.5h3.4v-.2a1.7,1.7,0,0,0-.4-1.3A1.7,1.7,0,0,0,86.9,60.7Z"/></g></svg>